Coordinates
nRows=234
nColumns=2
inDegrees=yes
endheader
time	ankle_angle_r	
2.72782	 19.060777	
2.76109	 19.054664	
2.79435	 19.051935	
2.82762	 19.050109	
2.86089	 19.042983	
2.89415	 19.025344	
2.92742	 18.995501	
2.96069	 18.958938	
2.99395	 18.925184	
3.02722	 18.898358	
3.06048	 18.880770	
3.09375	 18.877433	
3.12702	 18.883682	
3.16028	 18.883897	
3.19355	 18.869228	
3.22681	 18.845951	
3.26008	 18.829663	
3.29335	 18.829922	
3.32661	 18.839341	
3.35988	 18.846028	
3.39315	 18.847003	
3.42641	 18.845142	
3.45968	 18.844524	
3.49294	 18.845647	
3.52621	 18.844901	
3.55948	 18.842169	
3.59274	 18.839473	
3.62601	 18.836022	
3.65927	 18.834646	
3.69254	 18.844451	
3.72581	 18.870951	
3.75907	 18.906779	
3.79234	 18.937647	
3.8256	 18.961547	
3.85887	 18.987032	
3.89214	 19.010261	
3.9254	 19.021268	
3.95867	 19.026300	
3.99194	 19.036235	
4.0252	 19.047864	
4.05847	 19.052511	
4.09173	 19.048614	
4.125	 19.044816	
4.15827	 19.053799	
4.19153	 19.073850	
4.2248	 19.088019	
4.25806	 19.088643	
4.29133	 19.082969	
4.3246	 19.077948	
4.35786	 19.074798	
4.39113	 19.067870	
4.4244	 19.044999	
4.45766	 19.001344	
4.49093	 18.950168	
4.52419	 18.909510	
4.55746	 18.885344	
4.59073	 18.874546	
4.62399	 18.875108	
4.65726	 18.886983	
4.69052	 18.902055	
4.72379	 18.904164	
4.75706	 18.889431	
4.79032	 18.870165	
4.82359	 18.855818	
4.85685	 18.848418	
4.89012	 18.847036	
4.92339	 18.846048	
4.95665	 18.842025	
4.98992	 18.838872	
5.02319	 18.838807	
5.05645	 18.839487	
5.08972	 18.839951	
5.12298	 18.841633	
5.15625	 18.846393	
5.18952	 18.853778	
5.22278	 18.859157	
5.25605	 18.859253	
5.28931	 18.856674	
5.32258	 18.857179	
5.35585	 18.868289	
5.38911	 18.893123	
5.42238	 18.923635	
5.45565	 18.950717	
5.48891	 18.972830	
5.52218	 18.987313	
5.55544	 18.988597	
5.58871	 18.980208	
5.62198	 18.976193	
5.65524	 18.988098	
5.68851	 19.012281	
5.72177	 19.033234	
5.75504	 19.043761	
5.78831	 19.049590	
5.82157	 19.052190	
5.85484	 19.044959	
5.8881	 19.025879	
5.92137	 19.003882	
5.95464	 18.989841	
5.9879	 18.978849	
6.02117	 18.953434	
6.05444	 18.914033	
6.0877	 18.882070	
6.12097	 18.866263	
6.15423	 18.857956	
6.1875	 18.853965	
6.22077	 18.855647	
6.25403	 18.858364	
6.2873	 18.856717	
6.32056	 18.851769	
6.35383	 18.848339	
6.3871	 18.846794	
6.42036	 18.844965	
6.45363	 18.846267	
6.4869	 18.852156	
6.52016	 18.854645	
6.55343	 18.847120	
6.58669	 18.833417	
6.61996	 18.823657	
6.65323	 18.824325	
6.68649	 18.833343	
6.71976	 18.848742	
6.75302	 18.875513	
6.78629	 18.914537	
6.81956	 18.954753	
6.85282	 18.983176	
6.88609	 18.995232	
6.91935	 18.996309	
6.95262	 18.997086	
6.98589	 19.003607	
7.01915	 19.011332	
7.05242	 19.013615	
7.08569	 19.014520	
7.11895	 19.023569	
7.15222	 19.037564	
7.18548	 19.042181	
7.21875	 19.032968	
7.25202	 19.020632	
7.28528	 19.018618	
7.31855	 19.030595	
7.35181	 19.044916	
7.38508	 19.047836	
7.41835	 19.041846	
7.45161	 19.038527	
7.48488	 19.039990	
7.51815	 19.040937	
7.55141	 19.037909	
7.58468	 19.029056	
7.61794	 19.018232	
7.65121	 19.014710	
7.68448	 19.020447	
7.71774	 19.029263	
7.75101	 19.036287	
7.78427	 19.036775	
7.81754	 19.026923	
7.85081	 19.013791	
7.88407	 19.009644	
7.91734	 19.015082	
7.9506	 19.020915	
7.98387	 19.020598	
8.01714	 19.012234	
8.0504	 18.996447	
8.08367	 18.973766	
8.11694	 18.944123	
8.1502	 18.912315	
8.18347	 18.886738	
8.21673	 18.870841	
8.25	 18.859580	
8.28327	 18.846772	
8.31653	 18.835202	
8.3498	 18.830155	
8.38306	 18.828105	
8.41633	 18.823441	
8.4496	 18.816618	
8.48286	 18.809800	
8.51613	 18.805229	
8.5494	 18.805812	
8.58266	 18.809644	
8.61593	 18.811178	
8.64919	 18.808180	
8.68246	 18.802272	
8.71573	 18.797998	
8.74899	 18.799540	
8.78226	 18.803983	
8.81552	 18.805346	
8.84879	 18.803945	
8.88206	 18.804479	
8.91532	 18.812565	
8.94859	 18.831337	
8.98185	 18.853487	
9.01512	 18.873330	
9.04839	 18.902068	
9.08165	 18.944066	
9.11492	 18.980389	
9.14819	 18.997090	
9.18145	 18.999957	
9.21472	 18.999480	
9.24798	 19.003946	
9.28125	 19.015635	
9.31452	 19.026407	
9.34778	 19.027253	
9.38105	 19.017924	
9.41431	 19.003230	
9.44758	 18.988262	
9.48085	 18.980133	
9.51411	 18.987210	
9.54738	 19.008902	
9.58065	 19.025828	
9.61391	 19.014094	
9.64718	 18.974836	
9.68044	 18.933827	
9.71371	 18.911870	
9.74698	 18.911046	
9.78024	 18.924451	
9.81351	 18.941581	
9.84677	 18.949268	
9.88004	 18.941835	
9.91331	 18.927154	
9.94657	 18.917362	
9.97984	 18.914052	
10.0131	 18.907175	
10.0464	 18.890659	
10.0796	 18.873232	
10.1129	 18.870092	
10.1462	 18.881572	
10.1794	 18.887711	
10.2127	 18.874265	
10.246	 18.850720	
10.2792	 18.833430	
10.3125	 18.827567	
10.3458	 18.827826	
10.379	 18.826730	
10.4123	 18.823637	
10.4456	 18.822664	
10.4788	 18.824341	
